<?xml version="1.0" encoding="UTF-8"?>
<svg id="b" data-name="Layer 2" xmlns="http://www.w3.org/2000/svg" width="1000" height="1000" viewBox="0 0 1000 1000">
  <g id="c" data-name="Layer 1">
    <path d="M6.213,474.22c1.015-3.675,2.322-9.131,3.486-12.75,2.175-7.347,5.438-17.977,8.046-25.118,1-3.108,3.26-9.347,4.458-12.373,16.743-44.582,40.231-87.189,69.448-124.769,8.991-11.678,19.213-23.629,29.289-34.306,1.048-1.192,3.295-3.538,4.421-4.645,5.387-5.32,12.542-12.925,18.306-17.754,40.945-36.979,88.381-66.159,140.004-85.105,115.05-41.97,245.371-32.012,344.048,43.915,10.877,8.448,21.483,17.512,31.07,27.398,33.08,33.719,59.717,74.257,73.565,119.47,4.697,14.596,7.849,29.941,9.8,45.135,4.253,32.003,2.488,64.906-5.99,96.088-13.875,51.039-46.938,97.559-93.022,123.094-26.769,14.935-58.447,23.063-88.795,19.672-2.452-.26-7.471-1.003-9.888-1.429-1.135-.234-2.179-.423-3.382-.646-3.198-.951-7.158-2.014-10.432-2.95-18.071-5.182-33.688-15.177-45.825-29.002,10.691,8.129,22.869,14.354,35.563,18.538,20.075,6.682,41.816,7.361,62.328,3.012.488-.067,8.58-2.218,9.239-2.321,1.53-.426,5.144-1.23,6.561-1.768,5.73-1.746,11.862-3.981,17.333-6.418,28.719-12.433,52.762-34.184,70.446-59.629,8.652-12.952,15.809-26.942,21.42-41.451,15.756-41.299,16.898-87.093,5.927-129.626-6.935-26.645-18.329-52.385-33.347-75.439-14.888-22.879-33.525-43.256-54.529-60.604-40.328-32.711-89.557-54.501-140.912-62.217-43.371-6.629-87.893-4.333-130.494,5.967-36.897,9.08-71.793,25.204-103.56,45.732-129.063,83.314-187.519,232.903-168.926,382.725,19.843,166.237,146.785,309.847,303.867,362.091,36.894,12.436,75.455,20.253,114.261,23.263-37.526-7.958-74.515-19.728-109.282-35.806-138.648-63.203-247.248-200.057-256.326-354.506-6.548-106.752,30.227-215.179,112.944-285.372,35.818-29.928,78.769-53.159,124.456-62.907,20.489-4.258,41.725-5.902,62.642-5.316,39.823.985,79.491,12.091,113.201,33.437,21.317,13.341,40.262,30.751,54.841,51.233l.803,1.215,1.612,2.423c4.378,6.378,8.139,13.178,11.637,20.063.94,2.147,2.707,5.671,3.656,7.877.662,1.572,2.547,6.498,3.245,8.056,1.013,3.304,2.828,7.621,3.629,10.951,6.292,20.902,8.11,43.671,3.978,65.005-2.948,15.268-9.146,29.815-17.765,42.684-.918,1.161-1.901,2.613-2.891,3.764-3.465,4.448-7.299,8.605-11.48,12.325,2.016-2.607,3.921-5.294,5.723-8.042,3.688-5.131,6.285-11.031,7.782-17.079,3.031-7.232,5.357-14.724,6.906-22.183,2.807-14.052,3.494-26.692,2.125-40.488-2.733-24.236-11.72-48.112-25.517-68.141-4.925-7.25-10.81-14.594-16.892-20.854-15.173-16.453-36.219-29.775-45.668-34.096-.035-.021-.056-.034-.096-.059-1.02-.642-3.005-1.984-4.058-2.639-10.317-5.373-21.167-9.873-32.296-13.277-30.079-9.336-62.267-10.596-93.015-6.681l-2.046.254-1.42.296c-7.396,1.51-17.925,3.704-25.18,5.552-145.847,37.686-220.616,196.483-193.632,337.864.543,2.289,3.021,14.434,3.521,16.365,1.229,4.694,3.062,11.401,4.361,16.106,1.928,6.329,4.08,12.705,6.225,18.954.84,2.141,5.28,13.654,5.999,15.439,1.926,4.396,4.757,10.658,6.756,15.055.338.749,1.021,2.252,1.424,2.969,1.026,2.023,6.34,12.379,7.493,14.623,1.763,2.974,7.292,12.839,8.974,15.605l.882,1.386,3.537,5.537c9.129,14.617,19.792,28.695,30.887,41.868,32.199,38.045,72.649,69.063,117.298,90.961,4.13,2.003,10.291,4.928,14.411,6.899,8.862,3.666,17.608,7.659,26.685,10.766,7.046,2.64,16.898,5.987,24.258,8.076l6.109,1.865,6.194,1.583s12.385,3.124,12.385,3.124c6.058,1.26,12.651,2.593,18.768,3.782,4.4.825,14.3,2.141,18.9,2.878,5.859.775,13.055,1.376,18.982,1.97,4.416.49,14.411.766,19.017,1.053,5.825.305,13.139.091,19.003.14,7.3-.059,17.961-.603,25.239-1.112,4.149-.371,14.483-1.431,18.804-1.834,3.955-.572,14.885-2.157,18.646-2.713,4.36-.737,13.928-2.683,18.455-3.517,16.174-3.554,32.447-7.667,48.133-12.99,141.335-45.979,250.695-165.147,290.769-306.897,8.898-30.601,14.155-62.07,16.27-93.494,0,0-2.475,11.549-2.475,11.549-.603,3.197-1.897,8.368-2.685,11.474-1.474,6.36-4.308,16.437-6.141,22.691-31.328,106.397-102.281,202.761-196.368,260.679-3.955,2.268-10.494,6.283-14.567,8.56-4.686,2.454-10.155,5.554-14.871,7.944-13.952,7.072-28.908,13.574-43.562,19.086-3.706,1.34-9.488,3.22-13.178,4.572l-2.633.909-2.671.8c-6.244,1.907-15.08,4.577-21.422,6.052-3.299.79-7.423,2.024-10.806,2.617-4.253.836-12.005,2.692-16.355,3.338-5.156.785-11.294,2.107-16.463,2.735-4.273.456-12.162,1.645-16.481,2.037-3.35.26-13.11,1.036-16.5,1.312,0,0-10.997.394-10.997.394-6.159.419-15.75.046-21.937.052-5.005-.057-11.368-.692-16.375-.893l-2.724-.166s-2.712-.3-2.712-.3c-4.115-.513-12.12-1.166-16.234-1.857-2.648-.391-8.104-1.311-10.742-1.683-3.505-.447-12.49-2.393-15.976-3.126-3.01-.497-7.596-1.784-10.539-2.519-6.037-1.4-14.869-4.081-20.797-5.974-5.762-1.604-14.717-5.193-20.384-7.167-10.028-4.028-19.886-8.447-29.561-13.255-1.198-.53-3.679-1.839-4.803-2.47-2.351-1.264-7.144-3.917-9.499-5.155-3.17-1.616-10.808-6.312-13.882-8.195-12.091-7.321-23.613-15.815-34.487-24.839-25.125-20.679-46.282-45.973-63.535-73.488-.831-1.499-3.104-5.223-3.955-6.774-1.042-1.849-2.949-4.849-3.916-6.793-.844-1.686-5.14-9.728-6.092-11.619-1.515-3.4-5.137-10.855-6.518-14.236-1.387-3.531-3.483-8.52-4.857-12.041-.578-1.746-3.598-10.246-4.255-12.2-1.463-4.908-2.963-9.876-4.297-14.816-.999-4.631-2.598-10.312-3.357-14.973-2.535-13.124-4.152-26.988-4.453-40.309-2.468-90.603,48.041-187.475,140.673-209.881,4.963-1.202,13.066-2.682,18.835-3.792,24.508-2.476,47.599-.564,68.883,9.942,3.25,2.165,7.06,4.353,11.049,6.217,7.148,4.454,13.685,9.537,18.984,15.279,1.019,1.066,1.998,2.171,2.949,3.299-8.719-7.051-18.512-12.78-28.885-16.79-15.955-6.118-33.262-8.738-50.352-8.312-62.534,2.126-115.796,46.856-140.28,102.309-3.18,7.114-5.842,14.193-8.291,21.379-.74,3.398-2.234,8.201-3.158,11.982-.836,3.634-2.081,9.871-2.803,13.478-9.878,53.81.998,111.024,28.61,157.954,11.073,19.173,25.152,37.183,40.868,52.682,20.429,20.435,43.798,38.454,69.582,51.794,71.461,37.518,157.505,44.077,234.625,21.518,53.314-15.423,102.16-44.315,142.697-81.971,120.833-112.131,154.203-293.506,92.501-444.537C835.767,140.608,701.144,32.958,549.428,6.355c-16.39-3.023-32.9-5.148-49.428-6.355,64.016,13.21,126.047,38.709,179.699,75.75,65.786,45.117,119.323,108.12,152.168,180.696,45.168,98.068,48.444,215.457,1.313,313.166-44.446,94.73-137.947,168.425-244,174.302-46.509,2.731-94.288-7.762-133.683-31.649-20.928-12.974-39.784-30.044-55.055-49.39-23.587-30.656-36.2-69.542-31.923-108.104.223-3.156,1.102-7.384,1.475-10.531.429-1.918,1.35-6.054,1.728-7.961.809-3.421,1.665-5.886,2.595-9.322,5.523-15.499,14.919-30.793,27.416-42.039-3.061,4.387-5.962,8.865-8.773,13.981-4.358,7.558-7.782,16.719-10.852,25.019l.004,3.385c-1.018,3.616-1.768,7.252-2.195,10.669-.623,4.411-.695,8.593-.728,12.443-2.361,23.371,3.641,48.253,13.335,68.472l4.743,7.911c-1.067-1.424-1.681-2.528-1.944-3.029-.024-.047-.042-.083-.061-.119.046.097.106.228.182.396,1.914,4.655,5.937,12.123,9.528,16.647.729.966,2.658,3.712,3.368,4.616,8.305,10.842,17.55,20.892,28.141,29.886,21.692,18.495,48.014,31.465,75.534,38.312,3.311.906,7.235,2.076,10.572,2.71,12.901,2.568,26.474,4.11,39.618,4.332,135.456.901,241.568-111.16,258.632-241.106,6.401-44.675,2.449-90.521-9.32-133.989-16.437-59.46-50.023-113.612-93.618-156.813-97.095-97.328-239.277-131.807-371.722-99.778-36.132,8.978-71.515,21.679-104.557,39.215-42.656,22.758-81.872,52.124-115.296,87.069C53.215,291.507,7.862,395.856,0,500c1.818-7.486,4.014-18.457,6.213-25.78Z" fill="white"/>
  </g>
</svg>