<?xml version="1.0" encoding="UTF-8"?>
<svg id="Layer_1" xmlns="http://www.w3.org/2000/svg" version="1.1" viewBox="0 0 800 800">
  <!-- Generator: Adobe Illustrator 30.1.0, SVG Export Plug-In . SVG Version: 2.1.1 Build 136)  -->
  <defs>
    <style>
      .st0 {
        fill: #fefefe;
        fill-rule: evenodd;
      }
    </style>
  </defs>
  <g id="Page-1">
    <g id="Dribbble-Light-Preview">
      <g id="icons">
        <path id="adobe_x5F_cloud-_x5B__x23_131_x5D_" class="st0" d="M332.2,642.9c-8.3-7.8-39.1-37.4-53.5-51.5-3.2-3.1-6.2-4.7-10.7-4.6-131.9,3.2-180.9-110.6-149.7-192.8,23.9-63,90-101.3,155.2-89.5,54.7,9.9,68.4,31.7,154.1,119.6,23.7,24.4,62.8-12,37.9-37.7-27.2-28-53.8-56.8-82.2-83.6-55-52.1-119.8-67.6-191.5-45.4-96.4,29.7-152.9,130.9-130.9,230.7,20.1,91,98.4,154.8,190,154.9,6.8,0,74.5.2,81.3-.2M352,212.9c.5.7.6.9.8,1.1,16.5,8.2,32.2,17.9,47.1,28.9.9.7,3.2.4,4.4-.3,81.6-52.5,186.6-34.4,246,43,62,80.8,43.2,182.7-8.2,240.2-78.2,87.7-199.4,78.6-267.2,8.9-36.7-37.6-73.6-75-110.3-112.5-28.9-29.4-66.2,11.6-40.1,37.7,130.7,130.3,152.5,169.2,245.2,181.6,81.7,11,163-18.2,218.9-86.7,76.7-94.2,70.4-229.2-3.7-313.8-96.2-109.8-243.1-104.7-332.8-28.2M800,386.4c0,160.7-96.6,292.9-281.5,313.6-20.3,0-266,.4-285.8-.8-247.2-15.8-327.1-364.6-93.1-483.6,42.6-21.7,92.8-30.9,147.9-23.4,1.5.2,3.7-.4,4.8-1.6,164.2-170.4,476.9-98.2,507.6,195.7"/>
      </g>
    </g>
  </g>
</svg>