<?xml version="1.0" encoding="UTF-8"?>
<svg id="Layer_1" xmlns="http://www.w3.org/2000/svg" version="1.1" viewBox="0 0 800 800">
  <!-- Generator: Adobe Illustrator 30.1.0, SVG Export Plug-In . SVG Version: 2.1.1 Build 136)  -->
  <defs>
    <style>
      .st0 {
        fill: #fefefe;
      }
    </style>
  </defs>
  <g id="c133de6af664cd4f011a55de6b001b19">
    <path class="st0" d="M754.9.8l-66.5,720.8-288.3,77.6-288.3-77.6L45.1.8h709.7ZM620.8,147.3H174.8l10.8,87h226.2l-12,5-206.4,85.9,6.8,85.1,199.5.6,106.9.3-6.8,113.4-100.1,28.2h0c0,0-.8.1-.8.1l-96.7-24.4-5.9-70.4h-90.3l11.7,135.9,181.9,53.8h0c0,0,.3,0,.3,0l180.9-52.8,23.5-269.9h-205.2l.5-.2,212.2-90.7,8.8-87Z"/>
  </g>
</svg>