<?xml version="1.0" encoding="UTF-8"?>
<svg id="Layer_1" xmlns="http://www.w3.org/2000/svg" version="1.1" viewBox="0 0 800 800">
  <!-- Generator: Adobe Illustrator 30.1.0, SVG Export Plug-In . SVG Version: 2.1.1 Build 136)  -->
  <defs>
    <style>
      .st0 {
        fill: #fff;
      }

      .st1 {
        fill: #fefefe;
      }

      .st2 {
        fill: #f2f2f2;
      }

      .st3 {
        fill: #cfcfcf;
      }
    </style>
  </defs>
  <path class="st1" d="M427.5,400c0-64.5,51-116.7,113.8-116.7s113.7,52.2,113.7,116.7-50.9,116.7-113.7,116.7-113.8-52.2-113.8-116.7Z"/>
  <path class="st3" d="M200,633.3c0-64.4,51-116.7,113.8-116.7h113.8v116.7c0,64.4-51,116.7-113.8,116.7s-113.8-52.3-113.8-116.7Z"/>
  <path class="st0" d="M427.5,50v233.3h113.8c62.8,0,113.7-52.3,113.7-116.7s-50.9-116.6-113.8-116.6h-113.7Z"/>
  <path class="st2" d="M200,166.6c0,64.4,51,116.7,113.8,116.7h113.8V50h-113.8c-62.8,0-113.8,52.3-113.8,116.6Z"/>
  <path class="st0" d="M200,400c0,64.4,51,116.7,113.8,116.7h113.8v-233.3h-113.8c-62.8,0-113.8,52.2-113.8,116.7Z"/>
</svg>