<?xml version="1.0" encoding="UTF-8"?>
<svg id="Layer_1" xmlns="http://www.w3.org/2000/svg" version="1.1" viewBox="0 0 800 800">
  <!-- Generator: Adobe Illustrator 30.1.0, SVG Export Plug-In . SVG Version: 2.1.1 Build 136)  -->
  <defs>
    <style>
      .st0 {
        fill: #fefefe;
        fill-rule: evenodd;
      }
    </style>
  </defs>
  <path class="st0" d="M50,22.2l63.7,705.7,285.8,72,286.6-73.5L750,22.2H50ZM506.9,481.3l-106,45.3h-.2c0,0,102.5,0,102.5,0l-11.7,134.8-90.4,26.4h-.1l-90.9-26.9-5.8-67.9h45.1l2.9,35.2,48.3,12.2h.4s50-14.1,50-14.1l3.4-56.6h-53.4c0-.1-99.7-.4-99.7-.4l-3.4-42.5,103.1-42.9,6-2.5h-113l-5.4-43.5h222.7l-4.4,43.4ZM509.2,174.4h-173l4.1,40.1h164.8c-2.4,35.2-9.7,109.7-12.4,143.5l-92.5,26h0c0,0-.2.2-.2.2l-92.6-32.6-6.3-76.9h45.4s3.2,41.4,3.2,41.4l50.4,18.8h0l50.4-18.1,5.2-62.2h-156.7c-.8-8-10.5-112.5-12.2-120.4h226.5c-1.3,13.2-2.6,26.8-4.1,40.1Z"/>
</svg>