<?xml version="1.0" encoding="UTF-8"?>
<svg id="Layer_1" xmlns="http://www.w3.org/2000/svg" version="1.1" viewBox="0 0 800 800">
  <!-- Generator: Adobe Illustrator 30.1.0, SVG Export Plug-In . SVG Version: 2.1.1 Build 136)  -->
  <defs>
    <style>
      .st0 {
        fill: #fff;
      }
    </style>
  </defs>
  <path class="st0" d="M50,50v700h700V50H50ZM330.8,700c-71.4,0-101-42.4-105.8-61l53.7-34.1c4.2,12.7,20.6,36.1,44.3,36.1s35.9-24.4,35.9-36.1v-229.9h66.1v229.9c1.1,31.7-16.5,95.1-94.1,95.1ZM600.4,700c-95.8,0-121.2-57.5-125.4-67.8l51.5-34.1c4,12.7,29.6,42.8,61.9,42.8s47.3-17.6,47.3-29.3c0-31.9-33-43.1-48.8-48.5-2.6-.9-4.7-1.6-6.2-2.2-.7-.3-1.9-.8-3.3-1.3-17.6-6.7-82.6-31.6-82.6-103.6s76.5-88.4,93.8-88.4,65.8,1.4,92.9,52.3l-50,34.9c-11-22.2-29.2-29.5-40.4-29.5-27.7,0-33.5,20.3-33.5,29.5,0,25.9,30.1,37.6,55.5,47.4,6.6,2.6,13,5,18.4,7.6,27.7,13.1,68.5,34.5,68.5,101.9s-28.3,88.4-99.6,88.4Z"/>
</svg>