<?xml version="1.0" encoding="UTF-8"?>
<svg id="svg2" xmlns="http://www.w3.org/2000/svg" xmlns:svg="http://www.w3.org/2000/svg" xmlns:sodipodi="http://sodipodi.sourceforge.net/DTD/sodipodi-0.dtd" xmlns:rdf="http://www.w3.org/1999/02/22-rdf-syntax-ns#" xmlns:inkscape="http://www.inkscape.org/namespaces/inkscape" xmlns:dc="http://purl.org/dc/elements/1.1/" xmlns:cc="http://creativecommons.org/ns#" version="1.1" viewBox="0 0 602 382">
  <!-- Generator: Adobe Illustrator 30.1.0, SVG Export Plug-In . SVG Version: 2.1.1 Build 136)  -->
  <defs>
    <style>
      .st0 {
        fill: #fff;
      }
    </style>
  </defs>
  <sodipodi:namedview id="base" bordercolor="#666666" borderopacity="1.0" inkscape:current-layer="layer1" inkscape:cx="-298.61733" inkscape:cy="36.893627" inkscape:document-units="px" inkscape:pageopacity="0.0" inkscape:pageshadow="2" inkscape:window-height="706" inkscape:window-maximized="1" inkscape:window-width="1366" inkscape:window-x="-8" inkscape:window-y="-8" inkscape:zoom="0.37410882" pagecolor="#ffffff" showgrid="false"/>
  <path id="rect3027" class="st0" d="M40.9,0c-4.8,0-9.2.8-13.6,2.6l85.2,87.7,86.2,89.3,1.5,1.8,2.6,2.6,2.6,2.6,5,5.3,73.9,75.7c1.2.8,4.8,4.1,7.5,5.4,3.6,1.8,7.5,3.5,11.5,3.6,4.4.2,8.8-1.1,12.7-3,2.9-1.4,4.2-3.5,7.5-6l85.5-88.3,86.5-89L578.8,4.5c-5.3-2.9-11.3-4.4-17.7-4.4H40.9ZM14.8,10.7C5.7,19.3,0,32.3,0,46.9v287.9c0,11.8,3.8,22.6,10.1,30.8l11.9-11.3,89-86.5,78.9-76.3-1.5-1.8-86.5-89L15.5,11.3l-.6-.6h-.2.1ZM589.9,13.6l-84.2,87.1-86.2,89-1.5,1.5,82.1,79.5,89,86.5,5.3,5c4.8-7.7,7.5-17.2,7.5-27.3V46.9c0-13-4.5-24.9-11.9-33.3h-.2.1ZM199.9,201.9l-78.6,76.3-89.3,86.5-11.3,11c6,3.8,12.8,6.3,20.1,6.3h520.2c8.9,0,16.9-3.5,23.5-8.8l-5.6-5.6-89.3-86.5-82.1-79.2-73.9,76c-3.9,2.7-6.6,5.6-10.6,7.4-6.3,2.9-13.1,5.4-20.1,5.3-6.9,0-13.7-2.9-19.9-5.9-3.2-1.5-4.8-3-8.4-6.2l-74.8-76.6.2-.2v.2Z" inkscape:connector-curvature="0" sodipodi:nodetypes="sccccccccaaaccccsscsscccccccccccccccsscccccsscccccaaacc"/>
</svg>