<?xml version="1.0" encoding="UTF-8"?>
<svg id="Layer_1" xmlns="http://www.w3.org/2000/svg" version="1.1" viewBox="0 0 800 800">
  <!-- Generator: Adobe Illustrator 30.1.0, SVG Export Plug-In . SVG Version: 2.1.1 Build 136)  -->
  <defs>
    <style>
      .st0 {
        fill: #fff;
        fill-rule: evenodd;
      }
    </style>
  </defs>
  <g id="Page-1">
    <g id="Dribbble-Light-Preview">
      <g id="icons">
        <path id="python-_x5B__x23_127_x5D_" class="st0" d="M509.8,738.3c-19.3,0-34.9-15.7-34.9-35.1s15.6-35,34.9-35,34.9,15.6,34.9,35-15.6,35.1-34.9,35.1M402.9,800c203.1,0,190.4-88.5,190.4-88.5l-.2-91.7h-193.8v-27.5h270.8s130,14.8,130-191.2-113.4-198.7-113.4-198.7h-67.7v95.6s3.6,114-111.6,114h-192.2s-108-1.7-108,105v176.3s-16.4,106.8,195.8,106.8M290.3,61.7c19.3,0,34.8,15.7,34.8,35.1s-15.6,35-34.8,35-34.9-15.6-34.9-35,15.6-35.1,34.9-35.1M397.1,0c-203.1,0-190.4,88.5-190.4,88.5l.2,91.7h193.8v27.5H130S0,193,0,398.9s113.4,198.7,113.4,198.7h67.7v-95.6s-3.6-114,111.6-114h192.2s108,1.7,108-105V106.8S609.4,0,397.1,0"/>
      </g>
    </g>
  </g>
</svg>