<?xml version="1.0" encoding="UTF-8"?>
<svg id="Layer_1" xmlns="http://www.w3.org/2000/svg" version="1.1" viewBox="0 0 800 800">
  <!-- Generator: Adobe Illustrator 30.1.0, SVG Export Plug-In . SVG Version: 2.1.1 Build 136)  -->
  <defs>
    <style>
      .st0 {
        fill-rule: evenodd;
      }

      .st0, .st1 {
        fill: #fff;
      }
    </style>
  </defs>
  <path class="st1" d="M467,399.4c0-35.9-30-64.9-67-64.9s-67,29.1-67,64.9,30,64.9,67,64.9,67-29.1,67-64.9Z"/>
  <path class="st0" d="M617.5,278.8c14.1-55.7,31.9-159.1-30.7-194.1-62.4-34.9-143.6,32-186.4,72.1-42.7-39.7-126.2-106.3-188.8-71.1-62.4,35-43.1,136.6-28.7,192.7-58.2,16-157.9,50.5-157.9,121s99.6,107.8,157.4,123.8c-14.5,56.4-32.8,156.6,29.7,191.5,62.9,35.1,146-29.8,189.3-70.4,43.1,40.4,123.5,105.7,185.9,70.7,62.6-35.1,46.3-137.1,31.8-193.5,56-16,155.9-52.8,155.9-122.2s-100.2-104.6-157.5-120.6ZM610.4,491.7c-9.5-29.1-22.3-60.1-38-92.1,15-31.2,27.3-61.8,36.5-90.8,42,11.8,134,38.8,134,90.6s-88.3,79.6-132.6,92.3ZM571.3,688.1c-46.5,26.1-115.7-36.4-147.6-66.1,21.1-22.4,42.3-48.5,62.9-77.4,36.3-3.1,70.5-8.2,101.6-15.2,10.2,39.9,29.9,132.5-16.9,158.7ZM228.1,687.8c-46.6-26-25.3-115.4-14.6-156.9,30.7,6.6,64.7,11.3,101.1,14.2,20.7,28.3,42.5,54.3,64.4,77.1-27.1,25.4-104.1,91.8-150.8,65.6ZM57,399.4c0-52.5,91.5-79.3,134.4-91.1,9.4,29.6,21.7,60.5,36.6,91.8-15,31.8-27.5,63.2-37,93.1-40.9-11.4-134-41.3-134-93.9ZM227.6,112.6c46.7-26.2,119.3,37.7,150.3,66.4-21.8,22.7-43.3,48.5-63.9,76.7-35.3,3.2-69,8.3-100.1,15.1-11.6-45.2-33-131.9,13.7-158.2ZM509.5,289.4c23.9,2.9,46.9,6.8,68.4,11.6-6.5,20.1-14.5,41.1-24,62.6-13.8-25.3-28.5-50.1-44.4-74.2ZM400.4,201.2c14.8,15.5,29.6,32.9,44.1,51.7-29.5-1.4-59.1-1.4-88.6,0,14.6-18.6,29.5-35.9,44.5-51.6ZM246.4,363.6c-9.3-21.5-17.3-42.6-23.8-62.9,21.4-4.6,44.2-8.4,68-11.3-15.9,24.1-30.6,48.8-44.2,74.2ZM291.3,511.6c-24.6-2.7-47.7-6.3-69.1-10.8,6.6-20.7,14.8-42.3,24.3-64.2,13.7,25.7,28.7,50.7,44.8,75ZM401.2,599.8c-15.2-15.9-30.3-33.5-45.1-52.4,29.7,1.1,59.5,1.1,89.2-.2-14.6,19.2-29.4,36.8-44,52.5ZM554.2,435.6c10,22.2,18.5,43.6,25.2,64-21.7,4.8-45.2,8.7-70,11.6,16-24.6,31-49.7,44.8-75.5ZM468.7,514.9c-45.4,3.1-91.1,3.1-136.6.3-25.8-36.6-48.8-75-68.7-115,19.7-39.8,42.6-78.2,68.3-114.8,45.5-3.3,91.2-3.3,136.7,0,25.5,36.5,48.3,74.8,68.5,114.3-20,39.8-42.9,78.3-68.2,115.2ZM570.8,111.7c46.8,26.1,25.9,119,15.7,159.4-31.1-7-64.9-12.1-100.3-15.4-20.6-28.5-42-54.3-63.4-76.7,31.4-29.4,101.6-93.2,147.9-67.3Z"/>
</svg>